<svg width="60" height="60" viewBox="0 0 60 60" fill="none" xmlns="http://www.w3.org/2000/svg">
<path fill-rule="evenodd" clip-rule="evenodd" d="M30 60C46.5685 60 60 46.5685 60 30C60 13.4315 46.5685 0 30 0C13.4315 0 0 13.4315 0 30C0 46.5685 13.4315 60 30 60ZM45.1094 18.4694L31.044 11.9185L15 17.7788V42.0125L29.9321 49.0637V36.3943L45.1094 43.489V18.4694ZM43.1094 40.3463L29.9321 34.1865V25.3731L43.1094 20.5389V40.3463ZM27.9321 23.9765L41.5052 18.9971L30.9513 14.0816L17 19.1775V40.7451L27.9321 45.9075V23.9765Z" fill="#56B64E"/>
</svg>
