<svg width="60" height="60" viewBox="0 0 60 60" fill="none" xmlns="http://www.w3.org/2000/svg">
<g clip-path="url(#clip0_8341_404)">
<circle cx="30" cy="30" r="29.5" fill="white" stroke="#E7EBEE"/>
<path d="M33.7671 45.7167C33.1632 46.0558 32.4299 45.865 31.8692 45.5259C31.8692 45.5259 22.8327 40.4401 19.8348 38.7024C17.9369 37.6005 17.1605 36.8588 17.1605 34.1675C17.1605 30.7769 17.2036 20.584 17.2036 20.584C17.2036 19.9483 17.3977 19.2489 17.9801 18.8887L14.098 21.1137C13.7961 21.2833 13.5804 21.58 13.4725 21.8978C13.3647 22.1945 13.3216 22.4911 13.3216 22.809C13.3216 22.809 13.2784 33.002 13.2784 36.3926C13.2784 38.5965 14.4862 40.0375 15.6939 40.7791C16.4272 41.2242 27.9871 47.7511 27.9871 47.7511C28.3107 47.9418 28.6773 48.0689 29.0655 48.1113C29.3459 48.1325 29.6478 48.0689 29.8851 47.9418L33.7671 45.7167Z" fill="#FF2B42"/>
<path d="M34.716 39.2113C34.716 38.2577 34.3494 37.7279 33.573 37.3041C31.3947 36.1174 24.9677 32.4089 24.9677 32.4089L21.0856 34.634C21.0856 34.634 27.5773 38.2577 29.6909 39.5291C30.3595 39.9318 30.8339 40.4192 30.8339 41.4787C30.8339 42.6442 30.8124 46.1196 30.8124 46.1196C30.8124 46.7765 30.6183 47.497 30.0144 47.8572L33.8965 45.6322C34.1553 45.4839 34.371 45.2508 34.5004 44.9541C34.6513 44.615 34.716 44.2548 34.716 43.8945C34.6945 43.8309 34.716 40.0801 34.716 39.2113Z" fill="#FF2B42"/>
<path d="M40.8195 34.6338C40.798 34.9728 40.8627 40.6945 40.7333 40.8216C40.647 41.2666 40.3882 41.6692 40 41.9023L36.1179 44.1274C36.7218 43.7672 36.9159 43.0467 36.9159 42.3898L36.9375 36.8589L40.8195 34.6338Z" fill="#FF2B42"/>
<path d="M34.716 30.4594C34.716 28.3191 33.8318 27.0264 32.3436 26.1364C30.8771 25.2676 19.9426 19.0586 19.9426 19.0586C19.5544 18.8467 19.1015 18.6771 18.6486 18.6983C18.4114 18.6983 18.1957 18.7619 17.98 18.889L14.098 21.1141C14.7234 20.7751 15.4782 20.9658 16.0606 21.3048C16.0606 21.3048 26.4558 27.1748 28.095 28.1284C29.8635 29.1668 30.834 30.0144 30.834 32.4726C30.834 33.7228 30.834 35.3122 30.834 35.5241L34.716 33.2991C34.716 33.2991 34.716 32.0064 34.716 30.4594Z" fill="#FF2B42"/>
<path d="M40.8195 27.111C40.8195 24.9707 39.9353 23.6781 38.4471 22.788C36.9806 21.9192 26.0461 15.7102 26.0461 15.7102C25.6579 15.4983 25.205 15.3287 24.7521 15.3499C24.5148 15.3499 24.2992 15.4135 24.0835 15.5407L20.2014 17.7657C20.8269 17.4267 21.5817 17.6174 22.164 17.9565C22.164 17.9565 32.5593 23.8264 34.1984 24.78C35.9669 25.8183 36.9374 26.666 36.9374 29.1242C36.9374 30.3745 36.9374 31.9638 36.9374 32.1757L40.8195 29.9506C40.8195 29.9506 40.8195 28.658 40.8195 27.111Z" fill="#FF2B42"/>
<path d="M46.8799 23.7629C46.8799 21.6226 45.9956 20.3299 44.5075 19.4399C43.0409 18.571 32.1064 12.362 32.1064 12.362C31.7182 12.1501 31.2653 11.9806 30.8124 12.0018C30.5752 12.0018 30.3595 12.0654 30.1439 12.1925L26.2618 14.4176C26.8872 14.0785 27.6421 14.2692 28.2244 14.6083C28.2244 14.6083 38.6197 20.4783 40.2588 21.4319C42.0273 22.4702 42.9978 23.3179 42.9978 25.776C42.9978 27.0263 42.9978 28.6157 42.9978 28.8276L46.8799 26.6025C46.8799 26.6025 46.8799 25.3099 46.8799 23.7629Z" fill="#FF2B42"/>
<path d="M46.8799 31.4341C46.8583 31.7731 46.923 37.4948 46.7936 37.6219C46.7074 38.067 46.4486 38.4695 46.0604 38.7027L42.1783 40.9277C42.7822 40.5675 42.9763 39.847 42.9763 39.1901L42.9978 33.6591L46.8799 31.4341Z" fill="#FF2B42"/>
</g>
<defs>
<clipPath id="clip0_8341_404">
<rect width="60" height="60" fill="white"/>
</clipPath>
</defs>
</svg>
